<?xml version="1.0" encoding="UTF-8"?>
<svg id="_图层_1" data-name="图层 1" xmlns="http://www.w3.org/2000/svg" viewBox="0 0 1024 1024">
  <defs>
    <style>
      .cls-1 {
        fill: #e50012;
        stroke-width: 0px;
      }
    </style>
  </defs>
  <path class="cls-1" d="M311.02,853.3c-.21,0-.71-.06-.71-.63v-223.52s404.27-404.27,404.27-404.27c15.39-15.39,35.84-23.86,57.59-23.86s41.91,8.51,56.82,23.96c14.52,15.04,22.42,34.89,22.24,55.88-.17,21.02-8.43,40.76-23.25,55.57L311.33,853.09c-.21.21-.27.21-.31.21Z"/>
  <polygon class="cls-1" points="229.72 802.88 149.5 784.22 93.23 844.37 117.18 923.17 197.4 941.83 253.67 881.68 229.72 802.88"/>
  <path class="cls-1" d="M851.23,123.39H278.2l-111.15,111.15,99.93,47.92h584.25c43.86,0,79.54-35.68,79.54-79.54s-35.68-79.54-79.54-79.54Z"/>
  <path class="cls-1" d="M848.08,863.03l82.69-82.69V202.93c0-43.86-35.68-79.54-79.54-79.54s-79.54,35.68-79.54,79.54v542.46l76.38,117.63Z"/>
</svg>